<?xml version="1.0" standalone="no"?>
<!DOCTYPE svg PUBLIC "-//W3C//DTD SVG 20010904//EN"
 "http://www.w3.org/TR/2001/REC-SVG-20010904/DTD/svg10.dtd">
<svg version="1.0" xmlns="http://www.w3.org/2000/svg"
 width="500.000000pt" height="500.000000pt" viewBox="0 0 500.000000 500.000000"
 preserveAspectRatio="xMidYMid meet">

<g transform="translate(0.000000,500.000000) scale(0.100000,-0.100000)"
fill="#000000" stroke="none">
<path d="M1708 4130 c-9 -6 -80 -99 -159 -207 -78 -109 -207 -286 -285 -393
-353 -482 -519 -724 -511 -744 7 -18 141 -181 209 -254 43 -47 58 -70 58 -92
0 -18 -26 -72 -71 -147 -40 -65 -93 -163 -119 -218 -55 -118 -134 -353 -149
-445 -5 -36 -17 -108 -25 -160 -37 -226 -13 -650 47 -870 8 -30 18 -76 22
-102 l7 -47 -70 -72 c-39 -39 -75 -69 -80 -65 -5 3 -12 29 -15 58 -4 29 -18
100 -32 158 -13 58 -27 117 -30 132 -12 59 -105 118 -188 118 -31 0 -90 -63
-107 -114 -6 -20 -15 -36 -20 -36 -5 0 -17 15 -28 33 -31 49 -73 85 -120 101
l-42 15 0 -29 c0 -26 4 -30 28 -30 32 0 69 -34 98 -90 14 -27 18 -56 18 -130
0 -119 -19 -384 -28 -399 -4 -6 -25 -11 -46 -11 -53 0 -70 -8 -70 -34 0 -21 3
-21 174 -21 153 0 176 -2 194 -18 16 -15 34 -17 113 -15 l94 3 17 110 c20 127
38 174 79 204 48 35 79 44 86 23 4 -9 15 -28 25 -41 10 -13 18 -32 18 -42 0
-16 -8 -19 -44 -19 -25 0 -48 -4 -51 -10 -8 -14 12 -48 57 -98 25 -27 37 -49
34 -60 -20 -67 -19 -72 8 -72 21 0 26 5 26 23 0 37 10 38 56 7 41 -29 47 -30
151 -30 116 0 120 6 23 37 -56 18 -221 106 -269 144 l-26 21 130 -6 c72 -4
209 -11 305 -16 465 -26 603 -31 1242 -45 787 -18 1287 -48 1290 -80 0 -5 -8
-14 -18 -20 -62 -35 -60 -35 508 -34 598 1 575 -2 349 45 -41 8 -86 20 -100
27 -30 15 -63 75 -65 120 -1 26 2 32 19 30 106 -12 413 -14 488 -3 l87 12 0
1025 0 1025 -37 -6 c-55 -9 -209 17 -275 47 -41 18 -89 56 -170 134 -62 59
-113 115 -113 123 0 16 80 81 140 112 32 17 50 20 105 15 109 -10 156 -32 236
-111 39 -39 80 -84 92 -101 l21 -30 1 44 c0 77 -75 156 -212 223 -52 25 -76
31 -138 32 -70 1 -79 -2 -137 -37 -34 -21 -82 -61 -107 -89 l-45 -51 -68 60
c-185 162 -466 343 -618 397 -27 10 -60 25 -72 32 -89 55 -425 165 -618 201
-118 22 -466 28 -580 10 -49 -8 -94 -11 -98 -7 -13 12 10 83 42 128 22 30 44
45 86 61 31 12 61 21 68 21 37 1 38 16 6 106 -25 73 -40 99 -82 142 -98 101
-323 260 -494 349 -87 45 -111 53 -155 53 -29 0 -60 -5 -70 -10z m123 -32 c66
-22 296 -170 394 -253 29 -25 27 -24 -34 5 -34 17 -65 29 -67 27 -3 -3 0 -54
5 -113 14 -143 15 -148 25 -155 4 -4 -45 -32 -109 -64 l-118 -57 -30 17 c-44
26 -157 25 -217 -2 -58 -26 -122 -96 -145 -159 -10 -27 -23 -54 -28 -61 -5 -7
-56 -38 -115 -69 -145 -77 -307 -174 -430 -256 -57 -38 -106 -68 -108 -66 -4
5 134 208 162 239 10 11 31 19 49 19 39 0 90 43 101 85 4 16 2 42 -4 58 -6 17
-8 35 -5 41 27 44 207 292 214 294 11 4 156 210 185 262 32 57 142 208 157
213 23 10 84 7 118 -5z m346 -575 c-4 -3 -1 -13 6 -21 9 -12 9 -14 0 -9 -10 6
-9 1 0 -22 21 -49 53 -80 76 -74 19 5 19 3 5 -42 -24 -81 5 -172 63 -197 38
-16 37 -15 20 -32 -9 -10 -23 -13 -33 -9 -14 5 -16 3 -11 -12 6 -15 5 -16 -7
-6 -12 10 -16 8 -21 -9 l-6 -20 -26 20 c-16 12 -41 20 -65 20 -103 0 -187
-111 -128 -170 27 -27 57 -25 114 5 43 23 46 23 46 5 0 -38 -24 -120 -39 -134
-14 -12 -114 -68 -371 -208 -174 -95 -346 -213 -494 -341 -54 -47 -60 -50 -70
-33 -6 10 -21 34 -33 52 -12 19 -20 34 -17 34 2 0 -5 10 -16 22 -11 12 -18 28
-16 35 3 7 1 13 -4 13 -6 0 -9 3 -8 8 0 4 -6 23 -15 42 -9 19 -16 31 -17 27 0
-10 -60 55 -60 65 0 5 -7 8 -15 8 -8 0 -15 5 -15 10 0 6 -6 10 -12 10 -14 0
-228 210 -228 223 0 21 375 250 642 391 l107 57 36 -39 c48 -54 90 -72 167
-72 52 0 77 6 126 31 108 53 144 144 107 266 -6 20 0 25 46 46 80 35 151 63
168 66 2 1 1 -2 -2 -6z m223 -10 c-8 -3 -22 -11 -30 -17 -13 -10 -13 -9 -1 7
7 9 21 17 30 16 13 0 14 -1 1 -6z m-1250 -234 c0 -6 -9 -22 -20 -36 -23 -30
-24 -28 -9 16 11 30 29 43 29 20z m1690 -30 c150 -14 273 -40 444 -96 619
-201 1152 -603 1564 -1178 l107 -150 -1 -135 c-2 -166 -28 -317 -85 -490 -163
-494 -431 -829 -842 -1050 l-79 -43 -86 12 c-197 26 -648 46 -1247 56 -192 3
-519 12 -725 20 -206 8 -464 17 -572 21 l-198 6 -47 36 c-27 20 -88 71 -136
115 -83 76 -88 79 -102 61 -13 -17 -16 -17 -25 -4 -5 8 -9 26 -8 40 2 23 -12
75 -63 235 -51 160 -75 530 -50 752 27 227 99 488 177 643 70 136 169 296 180
290 17 -9 81 -96 125 -169 24 -40 49 -76 56 -78 7 -3 60 29 118 71 59 42 111
76 116 76 6 0 7 5 4 10 -3 6 1 10 9 10 8 0 19 6 23 13 4 6 28 22 53 34 25 13
74 41 110 64 117 75 292 179 299 179 4 0 16 8 27 18 58 51 230 145 454 248
198 91 300 151 300 177 0 26 -39 112 -74 164 -14 21 -26 41 -26 45 0 11 64 10
200 -3z m-290 -3 c0 -9 -30 -14 -35 -6 -4 6 3 10 14 10 12 0 21 -2 21 -4z
m-1458 -48 c-7 -7 -12 -8 -12 -2 0 14 12 26 19 19 2 -3 -1 -11 -7 -17z m1535
-47 c8 -20 24 -48 34 -63 21 -29 24 -48 9 -48 -6 0 -15 12 -21 27 -5 14 -23
46 -39 70 -17 25 -28 49 -24 54 9 15 25 0 41 -40z m-132 -1 c-11 -5 -27 -9
-35 -9 -9 0 -8 4 5 9 11 5 27 9 35 9 9 0 8 -4 -5 -9z m-2064 -2447 c39 -37 40
-40 59 -161 l20 -123 -25 -97 c-35 -129 -70 -191 -126 -220 -52 -26 -103 -22
-120 11 -7 12 -12 105 -12 236 -2 181 1 225 16 273 25 81 58 118 108 118 32 0
47 -7 80 -37z m425 -323 c1 -14 12 -50 23 -80 25 -66 26 -72 5 -68 -20 4 -53
96 -54 146 0 39 21 40 26 2z"/>
<path d="M1495 3757 c-33 -50 -68 -99 -77 -109 -17 -17 -17 -18 5 -18 61 0
137 84 145 159 2 27 0 51 -4 54 -5 3 -36 -36 -69 -86z"/>
<path d="M1741 3805 c-37 -42 -47 -78 -32 -111 21 -48 86 -23 121 46 33 65 22
100 -31 100 -18 0 -37 -11 -58 -35z"/>
<path d="M1907 3775 c-23 -22 -10 -47 22 -43 20 2 26 8 26 28 0 30 -26 38 -48
15z"/>
<path d="M1365 2895 c-44 -18 -119 -104 -140 -159 -17 -44 -17 -50 -2 -74 45
-75 173 2 223 135 16 40 16 48 3 71 -19 33 -48 43 -84 27z"/>
<path d="M1534 2796 c-41 -41 -42 -53 -6 -67 22 -9 35 -7 70 13 75 40 78 88 5
88 -26 0 -43 -8 -69 -34z"/>
<path d="M2725 2585 c-288 -53 -522 -166 -790 -382 -268 -216 -460 -484 -585
-816 -51 -137 -71 -236 -78 -386 -6 -148 7 -229 56 -361 73 -199 196 -330 370
-397 133 -51 363 -40 567 28 197 66 379 199 560 409 199 230 288 307 440 382
128 63 180 82 360 128 250 65 341 107 431 197 107 106 160 264 136 404 -23
132 -136 311 -300 473 -68 68 -181 152 -232 172 -8 3 -29 12 -45 19 -105 47
-143 60 -260 90 -71 19 -165 39 -208 44 -105 15 -335 12 -422 -4z m487 -40
c160 -28 356 -95 460 -156 219 -129 443 -411 479 -603 20 -108 -11 -222 -85
-324 -80 -108 -186 -159 -478 -232 -169 -42 -274 -82 -418 -159 -75 -40 -107
-67 -277 -238 -106 -106 -193 -186 -193 -178 0 8 5 15 11 15 7 0 0 11 -15 25
-15 14 -36 25 -47 25 -12 0 -19 7 -19 19 0 14 -10 21 -36 25 -19 4 -38 15 -41
24 -9 22 -23 32 -50 32 -13 0 -23 5 -23 10 0 6 -7 10 -15 10 -8 0 -15 5 -15
10 0 6 -11 10 -25 10 -14 0 -25 6 -25 13 0 8 -18 22 -40 32 -22 10 -40 22 -40
27 0 4 -14 8 -31 8 -22 0 -40 9 -57 27 l-25 27 8 -25 8 -24 -23 20 c-19 16
-22 17 -17 4 4 -13 1 -16 -14 -12 -14 4 -18 1 -14 -10 4 -8 -1 -17 -10 -21 -9
-3 -13 -2 -10 4 3 6 -1 7 -10 4 -9 -4 -14 -13 -11 -21 3 -8 0 -13 -7 -12 -6 1
-39 -11 -72 -26 -68 -33 -155 -43 -206 -26 -53 18 -96 64 -139 149 -62 123
-75 184 -74 357 0 125 5 174 28 290 16 77 30 154 32 170 1 17 10 44 18 60 9
17 16 35 16 42 0 21 207 219 309 296 285 215 539 321 836 351 67 7 273 -4 357
-19z"/>
</g>
</svg>
